# xmcd CD database file
#
# Track frame offsets:
#	150
#	18465
#	35518
#	54522
#	78125
#	93907
#	110685
#	129876
#	142769
#	160438
#	179974
#	196307
#	213042
#
# Disc length: 3297 seconds
#
# Revision: 1
# Processed by: cddbd v1.5.2PL0 Copyright (c) Steve Scherf et al.
# Submitted via: CDex 1.51
#
DISCID=a90cdf0d
DTITLE=Mike Blakely - Faded Blue
DYEAR=2003
DGENRE=Country
TTITLE0=Faded Blue
TTITLE1=Get Lucky
TTITLE2=Bolt from the Blue
TTITLE3=Let's Roll
TTITLE4=Always Never Enough
TTITLE5=Seguro Que Hell Yes
TTITLE6=Cry Me a River
TTITLE7=Michelle, Where the Hell are You ?
TTITLE8=Bad Young Woman
TTITLE9=The Old Cantina
TTITLE10=Too Much Texas
TTITLE11=The Weekend's Here at Last
TTITLE12=The Hatter's Hymn
EXTD=YEAR: 2003
EXTT0=
EXTT1=
EXTT2=
EXTT3=
EXTT4=
EXTT5=
EXTT6=
EXTT7=
EXTT8=
EXTT9=
EXTT10=
EXTT11=
EXTT12=
PLAYORDER=
